<svg width="35" height="35" viewBox="0 0 35 35" fill="none" xmlns="http://www.w3.org/2000/svg">
<path d="M18.18 34.3601C17.2 34.3601 16.21 34.2801 15.24 34.1201C5.34 32.5001 -1.37 23.1601 0.239996 13.2601C1.12 7.77012 4.47 3.00012 9.33 0.310119C10.16 -0.149881 11.18 -0.0898808 11.94 0.470119C12.72 1.00012 13.11 1.95012 12.94 2.88012L11.64 2.78012L12.87 3.00012C11.44 10.6101 15.77 18.1201 23.08 20.6801C25.8 21.6201 28.73 21.8101 31.55 21.2101C32.87 20.9501 34.15 21.8101 34.41 23.1301C34.51 23.6501 34.44 24.2001 34.21 24.6801C31.07 30.6201 24.9 34.3401 18.18 34.3601Z" fill="#ADADAD"/>
</svg>
