<svg width="35" height="35" viewBox="0 0 35 35" fill="none" xmlns="http://www.w3.org/2000/svg">
<path d="M18.1785 34.3601C17.1985 34.3601 16.2085 34.2801 15.2385 34.1201C5.33853 32.5001 -1.37147 23.1601 0.238531 13.2601C1.11853 7.77012 4.46853 3.00012 9.32853 0.310119C10.1585 -0.149881 11.1785 -0.0898808 11.9385 0.470119C12.7185 1.00012 13.1085 1.95012 12.9385 2.88012L11.6385 2.78012L12.8685 3.00012C11.4385 10.6101 15.7685 18.1201 23.0785 20.6801C25.7985 21.6201 28.7285 21.8101 31.5485 21.2101C32.8685 20.9501 34.1485 21.8101 34.4085 23.1301C34.5085 23.6501 34.4385 24.2001 34.2085 24.6801C31.0685 30.6201 24.8985 34.3401 18.1785 34.3601Z" fill="#F7323F"/>
</svg>
