<svg width="65" height="20" viewBox="0 0 65 20" fill="none" xmlns="http://www.w3.org/2000/svg">
<path d="M11.297 11.632C11.297 11.9093 11.2233 12.1303 11.076 12.295C10.9287 12.4597 10.7293 12.542 10.478 12.542H1.222C0.970667 12.542 0.771333 12.4597 0.624 12.295C0.476667 12.1303 0.403 11.9093 0.403 11.632V10.501C0.403 10.2237 0.476667 10.0027 0.624 9.838C0.771333 9.67333 0.970667 9.591 1.222 9.591H1.339V9.071H1.222C0.970667 9.071 0.771333 8.98867 0.624 8.824C0.476667 8.65933 0.403 8.43833 0.403 8.161V7.03C0.403 6.75267 0.476667 6.53167 0.624 6.367C0.771333 6.20233 0.970667 6.12 1.222 6.12H10.478C10.7293 6.12 10.9287 6.20233 11.076 6.367C11.2233 6.53167 11.297 6.75267 11.297 7.03V8.161C11.297 8.43833 11.2233 8.65933 11.076 8.824C10.9287 8.98867 10.7293 9.071 10.478 9.071H10.361V9.591H10.478C10.7293 9.591 10.9287 9.67333 11.076 9.838C11.2233 10.0027 11.297 10.2237 11.297 10.501V11.632ZM11.297 15.038C11.297 15.3153 11.2233 15.5363 11.076 15.701C10.9287 15.8657 10.7293 15.948 10.478 15.948H8.021V16.754C8.021 17.0313 7.94733 17.2523 7.8 17.417C7.65267 17.5817 7.45333 17.664 7.202 17.664H4.498C4.24667 17.664 4.04733 17.5817 3.9 17.417C3.75267 17.2523 3.679 17.0313 3.679 16.754V15.948H1.222C0.970667 15.948 0.771333 15.8657 0.624 15.701C0.476667 15.5363 0.403 15.3153 0.403 15.038V13.829C0.403 13.5517 0.476667 13.3307 0.624 13.166C0.771333 13.0013 0.970667 12.919 1.222 12.919H10.478C10.7293 12.919 10.9287 13.0013 11.076 13.166C11.2233 13.3307 11.297 13.5517 11.297 13.829V15.038ZM6.643 9.071C6.39167 9.00167 6.12733 8.967 5.85 8.967C5.57267 8.967 5.30833 9.00167 5.057 9.071V9.591C5.30833 9.52167 5.57267 9.487 5.85 9.487C6.12733 9.487 6.39167 9.52167 6.643 9.591V9.071ZM23.0021 16.754C23.0021 17.0313 22.9284 17.2523 22.7811 17.417C22.6337 17.5817 22.4344 17.664 22.1831 17.664H12.9271C12.6757 17.664 12.4764 17.5817 12.3291 17.417C12.1817 17.2523 12.1081 17.0313 12.1081 16.754V15.168C12.1081 14.8907 12.1817 14.6697 12.3291 14.505C12.4764 14.3403 12.6757 14.258 12.9271 14.258H22.1831C22.4344 14.258 22.6337 14.3403 22.7811 14.505C22.9284 14.6697 23.0021 14.8907 23.0021 15.168V16.754ZM23.0021 12.802C23.0021 13.0793 22.9284 13.3003 22.7811 13.465C22.6337 13.6297 22.4344 13.712 22.1831 13.712H12.9271C12.6757 13.712 12.4764 13.6297 12.3291 13.465C12.1817 13.3003 12.1081 13.0793 12.1081 12.802V7.03C12.1081 6.75267 12.1817 6.53167 12.3291 6.367C12.4764 6.20233 12.6757 6.12 12.9271 6.12H22.1831C22.4344 6.12 22.6337 6.20233 22.7811 6.367C22.9284 6.53167 23.0021 6.75267 23.0021 7.03V8.681C23.0021 8.95833 22.9284 9.188 22.7811 9.37C22.6337 9.552 22.4387 9.65167 22.1961 9.669C21.6674 9.71233 21.1517 9.747 20.6491 9.773C20.1464 9.79033 19.6437 9.79467 19.1411 9.786C18.6384 9.77733 18.1314 9.76 17.6201 9.734C17.1087 9.69933 16.5801 9.65167 16.0341 9.591V10.241C16.5801 10.3017 17.1087 10.3493 17.6201 10.384C18.1314 10.41 18.6384 10.4273 19.1411 10.436C19.6437 10.4447 20.1464 10.4403 20.6491 10.423C21.1517 10.397 21.6674 10.3623 22.1961 10.319C22.4387 10.3017 22.6337 10.3667 22.7811 10.514C22.9284 10.6613 23.0021 10.8737 23.0021 11.151V12.802ZM30.9892 14.96C30.9718 15.2893 30.9155 15.61 30.8202 15.922C30.7248 16.234 30.5862 16.5157 30.4042 16.767C30.2222 17.0183 29.9968 17.222 29.7282 17.378C29.4682 17.5427 29.1648 17.638 28.8182 17.664C28.5495 17.6813 28.3068 17.6943 28.0902 17.703C27.8735 17.7203 27.6612 17.729 27.4532 17.729C27.2452 17.729 27.0328 17.7203 26.8162 17.703C26.5995 17.6943 26.3612 17.6813 26.1012 17.664C25.7458 17.638 25.4295 17.5427 25.1522 17.378C24.8748 17.222 24.6365 17.0183 24.4372 16.767C24.2378 16.5157 24.0818 16.234 23.9692 15.922C23.8565 15.61 23.7958 15.2893 23.7872 14.96C23.7612 14.31 23.7395 13.7467 23.7222 13.27C23.7048 12.7933 23.6962 12.334 23.6962 11.892C23.6962 11.45 23.7048 10.9907 23.7222 10.514C23.7395 10.0373 23.7612 9.474 23.7872 8.824C23.7958 8.49467 23.8565 8.174 23.9692 7.862C24.0818 7.55 24.2378 7.26833 24.4372 7.017C24.6365 6.76567 24.8748 6.562 25.1522 6.406C25.4295 6.24133 25.7458 6.146 26.1012 6.12C26.3612 6.10267 26.5995 6.08967 26.8162 6.081C27.0328 6.07233 27.2452 6.068 27.4532 6.068C27.6612 6.068 27.8735 6.07233 28.0902 6.081C28.3068 6.08967 28.5495 6.10267 28.8182 6.12C29.1648 6.146 29.4682 6.24133 29.7282 6.406C29.9968 6.562 30.2222 6.76567 30.4042 7.017C30.5862 7.25967 30.7248 7.537 30.8202 7.849C30.9155 8.161 30.9718 8.486 30.9892 8.824C30.9978 8.98867 31.0022 9.136 31.0022 9.266C31.0108 9.396 31.0152 9.53033 31.0152 9.669H31.3012V7.03C31.3012 6.75267 31.3748 6.53167 31.5222 6.367C31.6695 6.20233 31.8688 6.12 32.1202 6.12H33.8882C34.1395 6.12 34.3388 6.20233 34.4862 6.367C34.6335 6.53167 34.7072 6.75267 34.7072 7.03V16.754C34.7072 17.0313 34.6335 17.2523 34.4862 17.417C34.3388 17.5817 34.1395 17.664 33.8882 17.664H32.1202C31.8688 17.664 31.6695 17.5817 31.5222 17.417C31.3748 17.2523 31.3012 17.0313 31.3012 16.754V13.465H31.0412L30.9892 14.96ZM27.5702 14.648C27.7002 13.7033 27.7652 12.7847 27.7652 11.892C27.7652 10.9993 27.7002 10.0807 27.5702 9.136H27.1932C27.3145 10.0807 27.3752 10.9993 27.3752 11.892C27.3752 12.7847 27.3145 13.7033 27.1932 14.648H27.5702ZM46.4122 16.754C46.4122 17.0313 46.3386 17.2523 46.1912 17.417C46.0439 17.5817 45.8446 17.664 45.5932 17.664H44.8912C44.6486 17.664 44.4492 17.5817 44.2932 17.417C44.1459 17.2523 44.0722 17.0313 44.0722 16.754V13.595H43.7862V16.754C43.7862 17.0313 43.7126 17.2523 43.5652 17.417C43.4179 17.5817 43.2186 17.664 42.9672 17.664H42.2652C42.0139 17.664 41.8146 17.5817 41.6672 17.417C41.5199 17.2523 41.4462 17.0313 41.4462 16.754V7.03C41.4462 6.75267 41.5199 6.53167 41.6672 6.367C41.8146 6.20233 42.0139 6.12 42.2652 6.12H42.9672C43.2186 6.12 43.4179 6.20233 43.5652 6.367C43.7126 6.53167 43.7862 6.75267 43.7862 7.03V9.799H44.0722V7.03C44.0722 6.75267 44.1459 6.53167 44.2932 6.367C44.4492 6.20233 44.6486 6.12 44.8912 6.12H45.5932C45.8446 6.12 46.0439 6.20233 46.1912 6.367C46.3386 6.53167 46.4122 6.75267 46.4122 7.03V16.754ZM38.2092 16.754C38.2092 17.0313 38.1312 17.2523 37.9752 17.417C37.8279 17.5817 37.6329 17.664 37.3902 17.664H36.3372C36.0859 17.664 35.8866 17.5817 35.7392 17.417C35.5919 17.2523 35.5182 17.0313 35.5182 16.754V7.03C35.5182 6.75267 35.5919 6.53167 35.7392 6.367C35.8866 6.20233 36.0859 6.12 36.3372 6.12H37.3902C37.6329 6.12 37.8279 6.20233 37.9752 6.367C38.1312 6.53167 38.2092 6.75267 38.2092 7.03V9.149C38.2092 9.26167 38.1746 9.35267 38.1052 9.422C38.0446 9.49133 37.9666 9.526 37.8712 9.526H37.8582V14.258H37.8712C37.9666 14.258 38.0446 14.2927 38.1052 14.362C38.1746 14.4313 38.2092 14.5223 38.2092 14.635V16.754ZM41.1472 16.754C41.1472 17.0313 41.0736 17.2523 40.9262 17.417C40.7789 17.5817 40.5796 17.664 40.3282 17.664H39.3142C39.0629 17.664 38.8636 17.5817 38.7162 17.417C38.5689 17.2523 38.4952 17.0313 38.4952 16.754V7.03C38.4952 6.75267 38.5689 6.53167 38.7162 6.367C38.8636 6.20233 39.0629 6.12 39.3142 6.12H40.3282C40.5796 6.12 40.7789 6.20233 40.9262 6.367C41.0736 6.53167 41.1472 6.75267 41.1472 7.03V9.201C41.1472 9.41767 41.0476 9.526 40.8482 9.526H40.8352V14.258H40.8482C41.0476 14.258 41.1472 14.3663 41.1472 14.583V16.754Z" fill="#FF4F26"/>
<path d="M54.2218 19.5244C51.9392 19.3871 50.1111 18.4887 48.9026 16.5435C47.4585 14.2198 47.777 11.232 49.6448 9.12857C50.0853 8.63303 50.6143 8.24901 51.1461 7.85593C51.9392 7.26909 52.8341 6.98961 53.7778 6.81049C54.1075 6.74776 54.442 6.71571 54.7786 6.72128C54.8797 6.72267 54.9396 6.69758 54.9842 6.60001C55.0198 6.52195 55.0783 6.44529 55.1452 6.39162C55.5411 6.0766 55.7725 5.61939 56.1335 5.273C56.3475 5.0674 56.5287 4.82904 56.7315 4.61159C56.804 4.53353 56.8388 4.45966 56.7998 4.3572C56.7615 4.25684 56.7301 4.15369 56.6897 4.05472C56.4402 3.44767 56.3301 2.81066 56.5043 2.17921C56.7573 1.26411 57.4062 0.706543 58.3094 0.451457C59.1353 0.217977 59.9717 0.555304 60.516 1.33171C60.5982 1.4488 60.6651 1.46762 60.8052 1.44323C61.3969 1.34147 61.9824 1.38817 62.5365 1.62862C63.2014 1.91716 63.5951 2.45451 63.8119 3.12777C63.9004 3.40377 63.8433 3.68046 63.7178 3.93833C63.6516 4.07424 63.5756 4.20666 63.4934 4.3342C63.4418 4.41366 63.4537 4.44572 63.538 4.48823C64.3604 4.90431 64.8064 5.58106 64.9221 6.48919C64.98 6.94082 65.0769 7.39106 64.8936 7.83711C64.6594 8.40861 64.2335 8.80379 63.708 9.0979C63.4606 9.2359 63.1916 9.33348 62.9079 9.38644C62.6375 9.43662 62.3782 9.42478 62.1371 9.27981C62.0019 9.19827 61.8841 9.21848 61.7496 9.30072C61.3725 9.53141 60.9997 9.77325 60.5794 9.9231C60.4602 9.96561 60.5062 10.0242 60.5418 10.0939C60.8254 10.65 61.0262 11.2348 61.1223 11.8516C61.4102 13.6978 60.9641 15.367 59.819 16.8265C58.3937 18.642 56.4813 19.4902 54.2218 19.5244Z" fill="#FF4F26"/>
<path d="M54.4176 19.0203C51.7699 19.0231 49.4978 17.4675 48.7611 15.1174C48.0447 12.8313 48.6489 10.8297 50.2533 9.09844C50.3864 8.95486 50.5523 8.84126 50.6792 8.69351C51.0562 8.25512 51.5322 8.27951 52.0333 8.37151C52.5303 8.46281 53.0335 8.52554 53.513 8.6942C54.1744 8.92699 54.8226 9.19183 55.4672 9.46782C55.7809 9.60164 56.1008 9.72291 56.4249 9.82745C56.6793 9.9097 56.9169 10.0219 57.1602 10.1285C57.6606 10.3481 57.7881 10.7767 57.8592 11.2583C57.9212 11.68 57.8069 12.0696 57.6968 12.4661C57.6132 12.7651 57.7324 12.9951 58.0216 13.092C58.2767 13.1777 58.5359 13.2007 58.7959 13.0711C59.182 12.8787 59.5835 13.1289 59.6058 13.5666C59.6086 13.6175 59.6051 13.6684 59.6134 13.7186C59.7096 14.2803 59.3744 14.6037 58.9458 14.8323C58.6342 14.9982 58.4934 15.2289 58.4516 15.5599C58.4098 15.8917 58.4516 16.2172 58.4962 16.5426C58.5234 16.7427 58.6203 16.9204 58.7722 17.0493C58.8775 17.1378 58.8579 17.179 58.7722 17.2591C57.8488 18.1157 56.7706 18.6656 55.5356 18.9074C55.1362 18.9841 54.7327 19.0133 54.4176 19.0203Z" fill="#FEFEFE"/>
<path d="M55.9873 5.9029C56.395 5.58718 56.6654 5.18294 57.0258 4.86931C57.2349 4.68741 57.2669 4.47971 57.2035 4.23787C57.1714 4.1166 57.122 3.99881 57.0739 3.88172C56.871 3.39037 56.8076 2.8802 56.8885 2.35609C56.9644 1.86264 57.2704 1.5065 57.6447 1.21308C57.9318 0.98796 58.2726 0.848569 58.6357 0.807448C59.1243 0.751692 59.546 0.930112 59.8917 1.26883C60.0764 1.44935 60.2373 1.65355 60.321 1.90934C60.3684 2.0557 60.5384 2.12958 60.6395 2.03549C60.9343 1.76228 61.2863 1.84661 61.6152 1.86682C62.4321 1.9177 62.9938 2.34354 63.3054 3.10183C63.3904 3.30813 63.3904 3.51164 63.2942 3.70818C63.1743 3.95212 63.0496 4.19466 62.8356 4.37587C62.7485 4.44974 62.6962 4.54174 62.7318 4.66092C62.7673 4.7801 62.8621 4.8261 62.975 4.84353C63.6873 4.95504 64.0964 5.41503 64.3187 6.05623C64.4428 6.41377 64.4881 6.795 64.5083 7.17554C64.5264 7.51566 64.4093 7.8028 64.1947 8.06347C63.8392 8.49558 63.3918 8.77018 62.8481 8.89424C62.6753 8.93396 62.5101 8.93257 62.354 8.83639C62.0515 8.6503 61.77 8.70257 61.4849 8.89145C61.1845 9.09078 60.8667 9.26084 60.5419 9.41905C60.4269 9.4748 60.3726 9.47898 60.3642 9.3152C60.328 8.58688 60.0575 7.97635 59.4791 7.49893C59.0086 7.11073 58.4678 6.85355 57.9374 6.57267C57.6969 6.44513 57.4502 6.33083 57.2077 6.20677C56.8376 6.01999 56.432 5.96214 55.9873 5.9029Z" fill="#FEFEFE"/>
<path d="M59.8457 9.01909C58.6434 7.6217 57.1415 6.89686 55.3545 6.73447C55.5378 6.39296 55.8096 6.2689 56.1664 6.32257C56.692 6.40202 57.1443 6.64944 57.5987 6.90034C58.1395 7.19934 58.7076 7.44885 59.1836 7.85936C59.5321 8.16114 59.7697 8.5138 59.8457 9.01909Z" fill="#FEFEFE"/>
<path d="M52.1884 8.77539C52.6296 8.79978 53.031 8.94405 53.4123 9.15384C53.5517 9.2305 53.6451 9.33993 53.6827 9.50092C53.7398 9.74486 53.62 9.94767 53.3684 9.98461C53.238 10.0034 53.1014 10.0041 52.9711 9.9874C52.5146 9.92955 52.0839 9.78807 51.6964 9.53577C51.5458 9.4375 51.4308 9.30229 51.474 9.10993C51.5179 8.9099 51.6852 8.83672 51.8685 8.80466C51.9731 8.78654 52.0811 8.78445 52.1884 8.77539Z" fill="#FF4F26"/>
<path d="M56.5991 11.4411C56.1545 11.4048 55.7656 11.1943 55.3927 10.9567C55.2415 10.8605 55.1669 10.6897 55.2289 10.5071C55.2909 10.3259 55.4213 10.197 55.6227 10.1663C55.8415 10.1336 56.0492 10.1872 56.2527 10.2597C56.4904 10.3447 56.7253 10.4374 56.9483 10.5573C57.2208 10.703 57.3268 10.8668 57.2891 11.0689C57.2578 11.2389 57.0368 11.3978 56.7803 11.432C56.7253 11.4397 56.6674 11.4383 56.5991 11.4411Z" fill="#FF4F26"/>
<path d="M53.4339 12.2481C53.3837 12.2509 53.3328 12.2516 53.2826 12.2565C53.1969 12.2655 53.1175 12.299 53.0805 12.3778C53.0408 12.4628 53.1126 12.5192 53.1628 12.5729C53.2227 12.6377 53.2861 12.7004 53.3558 12.7534C53.4478 12.8231 53.4973 12.906 53.4429 13.0134C53.3809 13.1353 53.2687 13.1451 53.1488 13.1116C52.8652 13.0322 52.5885 12.6565 52.5989 12.3652C52.608 12.1059 52.8533 11.8536 53.1676 11.7846C53.3175 11.7519 53.4701 11.7575 53.62 11.7832C53.758 11.8062 53.859 11.8843 53.8486 12.0376C53.8381 12.1931 53.7238 12.2453 53.5844 12.2544C53.5342 12.2579 53.4834 12.2551 53.4332 12.2551C53.4339 12.253 53.4339 12.2509 53.4339 12.2481Z" fill="#FF4F26"/>
<path d="M52.2207 14.3301C52.2207 14.0757 52.4256 13.829 52.6424 13.8241C52.8549 13.8185 53.0166 13.9754 53.0208 14.1893C53.0257 14.4744 52.8278 14.7093 52.5803 14.712C52.3733 14.7141 52.2207 14.5524 52.2207 14.3301Z" fill="#FF4F26"/>
<path d="M55.7637 12.3366C55.7664 12.5199 55.6278 12.6719 55.4521 12.6768C55.2681 12.6816 55.1141 12.5332 55.1085 12.3464C55.1036 12.168 55.2486 12.007 55.4173 12.0035C55.5957 11.9993 55.7602 12.1582 55.7637 12.3366Z" fill="#FF4F26"/>
<path d="M51.9496 11.4016C51.7636 11.4023 51.6186 11.2664 51.6172 11.0894C51.6158 10.9054 51.7406 10.7736 51.9176 10.773C52.0981 10.7723 52.2333 10.9103 52.2368 11.0991C52.2403 11.2775 52.1232 11.4009 51.9496 11.4016Z" fill="#FF4F26"/>
<path d="M59.3371 4.77762C59.3371 4.84383 59.3079 4.90029 59.2709 4.95256C59.1002 5.1958 58.9294 5.43903 58.7573 5.68088C58.705 5.75406 58.6346 5.80076 58.5461 5.75615C58.4464 5.70597 58.4485 5.61536 58.4889 5.52615C58.6276 5.2188 58.8298 4.95047 59.02 4.67517C59.0688 4.60478 59.149 4.57063 59.2382 4.60966C59.31 4.64102 59.3406 4.70026 59.3371 4.77762Z" fill="#FF4F26"/>
<path d="M60.8723 7.63618C60.7232 7.6313 60.6681 7.54488 60.7183 7.44103C60.7497 7.37622 60.8054 7.33231 60.8674 7.30025C61.142 7.15877 61.4396 7.10998 61.7435 7.09674C61.8488 7.09186 61.9289 7.14622 61.9498 7.25425C61.9714 7.36646 61.9038 7.44522 61.8062 7.46822C61.4863 7.5407 61.1504 7.517 60.8723 7.63618Z" fill="#FF4F26"/>
<path d="M59.8015 6.27245C59.7019 6.26966 59.6363 6.26339 59.6126 6.18951C59.591 6.12191 59.6405 6.08497 59.6872 6.05082C59.881 5.90864 60.0733 5.76506 60.2699 5.62707C60.3633 5.56155 60.4762 5.52322 60.5577 5.62985C60.6393 5.73649 60.5779 5.83824 60.4866 5.90933C60.272 6.078 60.0371 6.21042 59.8015 6.27245Z" fill="#FF4F26"/>
</svg>
