<svg id="레이어_1" data-name="레이어 1" xmlns="http://www.w3.org/2000/svg" viewBox="0 0 1329.29 370.32"><defs><style>.cls-1{fill:#ff4f26;}.cls-2{fill:#fff;}</style></defs><title>FoodLogoOrange</title><path class="cls-1" d="M258.23,264.2q0,8.71-4.63,13.88t-12.51,5.17H47.35q-7.91,0-12.52-5.17T30.21,264.2V240.53q0-8.7,4.62-13.88t12.52-5.17H49.8V210.6H47.35q-7.91,0-12.52-5.17t-4.62-13.88V167.88q0-8.72,4.62-13.88t12.52-5.17H241.09q7.89,0,12.51,5.17t4.63,13.88v23.67q0,8.72-4.63,13.88t-12.51,5.17h-2.45v10.88h2.45q7.89,0,12.51,5.17t4.63,13.88Zm0,71.29q0,8.72-4.63,13.88t-12.51,5.17H189.66v16.87q0,8.71-4.63,13.88c-3.08,3.44-7.26,5.17-12.51,5.17h-56.6q-7.9,0-12.52-5.17t-4.62-13.88V354.54H47.35q-7.91,0-12.52-5.17t-4.62-13.88v-25.3q0-8.71,4.62-13.88t12.52-5.17H241.09q7.89,0,12.51,5.17t4.63,13.88ZM160.82,210.6a64.29,64.29,0,0,0-33.2,0v10.88a64.58,64.58,0,0,1,33.2,0Z" transform="translate(-30.21 -21.5)"/><path class="cls-1" d="M503.12,288.69q0,8.71-4.62,13.88T486,307.74H292.24q-7.89,0-12.52-5.17t-4.62-13.88V167.88q0-8.72,4.62-13.88t12.52-5.17H486q7.89,0,12.52,5.17t4.62,13.88v34.56q0,8.7-4.62,14.42a16.64,16.64,0,0,1-12.25,6.26q-16.61,1.37-32.38,2t-31.56.4q-15.8-.26-31.84-1.22t-33.2-2.86v13.61q17.14,1.91,33.2,2.86t31.84,1.22q15.76.27,31.56-.41t32.38-2q7.62-.54,12.25,4.08t4.62,13.34Zm0,82.72q0,8.71-4.62,13.88T486,390.46H292.24q-7.89,0-12.52-5.17t-4.62-13.88V338.22q0-8.72,4.62-13.88t12.52-5.17H486q7.89,0,12.52,5.17t4.62,13.88Z" transform="translate(-30.21 -21.5)"/><path class="cls-1" d="M670.19,333.86A83.32,83.32,0,0,1,666.65,354a59.4,59.4,0,0,1-8.7,17.68,47.79,47.79,0,0,1-14,12.93,42.58,42.58,0,0,1-19.18,5.85q-8.44.54-15.24,1t-13.33.41q-6.52,0-13.33-.41t-15-1A45.79,45.79,0,0,1,548,384.61a52.44,52.44,0,0,1-15-12.93,62.35,62.35,0,0,1-9.8-17.68,63.75,63.75,0,0,1-3.8-20.14q-.83-20.4-1.37-35.37t-.54-28.84q0-13.89.54-28.85t1.37-35.37a63.8,63.8,0,0,1,3.8-20.14,62.35,62.35,0,0,1,9.8-17.68,52.44,52.44,0,0,1,15-12.93,45.92,45.92,0,0,1,19.86-5.85q8.16-.54,15-.82c4.53-.17,9-.27,13.33-.27s8.8.1,13.33.27,9.61.46,15.24.82a42.71,42.71,0,0,1,19.18,5.85,48.56,48.56,0,0,1,14,12.79,57.64,57.64,0,0,1,8.7,17.55,84,84,0,0,1,3.54,20.41q.27,5.17.41,9.25c.09,2.72.14,5.54.14,8.44h6V167.88q0-8.72,4.63-13.88t12.51-5.17h37q7.89,0,12.52,5.17T748,167.88V371.41q0,8.71-4.62,13.88t-12.52,5.17h-37q-7.89,0-12.51-5.17t-4.63-13.88V302.57h-5.44Zm-71.56-6.53a409.83,409.83,0,0,0,0-115.37h-7.89a438.59,438.59,0,0,1,0,115.37Z" transform="translate(-30.21 -21.5)"/><path class="cls-1" d="M821.21,371.41q0,8.71-4.76,13.88a16.1,16.1,0,0,1-12.39,5.17H782q-7.89,0-12.51-5.17t-4.63-13.88V167.88q0-8.72,4.63-13.88T782,148.83h22A16.1,16.1,0,0,1,816.45,154q4.75,5.17,4.76,13.88v44.35a8,8,0,0,1-2,5.72,6.63,6.63,0,0,1-5,2.17h-.27v99.05h.27a6.64,6.64,0,0,1,5,2.18,8,8,0,0,1,2,5.71Zm61.49,0q0,8.71-4.62,13.88t-12.52,5.17H844.34q-7.9,0-12.52-5.17t-4.63-13.88V167.88q0-8.72,4.63-13.88t12.52-5.17h21.22q7.89,0,12.52,5.17t4.62,13.88v45.44q0,6.81-6.26,6.8h-.27v99.05h.27q6.27,0,6.26,6.8Zm110.21,0q0,8.71-4.63,13.88t-12.52,5.17H961.07a16.07,16.07,0,0,1-12.38-5.17q-4.77-5.18-4.76-13.88V305.29h-6v66.12q0,8.71-4.63,13.88t-12.51,5.17H906.1q-7.89,0-12.51-5.17T889,371.41V167.88q0-8.72,4.63-13.88t12.51-5.17h14.7q7.89,0,12.51,5.17t4.63,13.88v58h6v-58q0-8.72,4.76-13.88a16.07,16.07,0,0,1,12.38-5.17h14.69q7.89,0,12.52,5.17t4.63,13.88Z" transform="translate(-30.21 -21.5)"/><path class="cls-1" d="M1152,390.13c-43.94-2.64-79.14-19.94-102.41-57.4-27.8-44.73-21.66-102.27,14.3-142.76,8.48-9.54,18.67-16.93,28.9-24.5,15.28-11.29,32.51-16.68,50.67-20.12a95,95,0,0,1,19.27-1.72c2,0,3.1-.46,4-2.34a11.15,11.15,0,0,1,3.1-4c7.61-6.06,12.08-14.87,19-21.54,4.11-4,7.61-8.55,11.51-12.74,1.4-1.5,2.08-2.92,1.32-4.9s-1.35-3.92-2.13-5.83c-4.8-11.69-6.93-24-3.56-36.11,4.87-17.62,17.36-28.35,34.75-33.26,15.9-4.49,32,2,42.48,17,1.59,2.25,2.87,2.61,5.58,2.15,11.39-2,22.67-1.06,33.33,3.57,12.8,5.55,20.38,15.9,24.55,28.85,1.71,5.31.61,10.65-1.81,15.62a71.36,71.36,0,0,1-4.33,7.61c-1,1.54-.76,2.15.86,3,15.83,8,24.42,21,26.65,38.52,1.11,8.69,3,17.36-.54,26-4.51,11-12.71,18.61-22.82,24.26a50.45,50.45,0,0,1-15.4,5.56c-5.21,1-10.2.74-14.84-2.06-2.61-1.57-4.87-1.18-7.46.41-7.26,4.45-14.44,9.09-22.53,12-2.3.82-1.41,1.95-.72,3.29a112.32,112.32,0,0,1,11.17,33.85c5.54,35.55-3,67.68-25.09,95.78C1232.32,373.14,1195.49,389.47,1152,390.13Z" transform="translate(-30.21 -21.5)"/><path class="cls-2" d="M1155.79,380.42c-51,.05-94.73-29.89-108.9-75.14-13.79-44-2.17-82.56,28.73-115.89,2.56-2.77,5.75-5,8.2-7.8,7.26-8.45,16.43-8,26.07-6.2s19.26,3,28.49,6.21c12.73,4.49,25.22,9.59,37.63,14.89,6,2.58,12.19,4.91,18.44,6.92a151.6,151.6,0,0,1,14.15,5.8c9.63,4.23,12.1,12.48,13.46,21.75,1.19,8.13-1,15.63-3.13,23.25-1.61,5.77.68,10.19,6.25,12.06,4.91,1.65,9.91,2.09,14.9-.4,7.43-3.71,15.16,1.11,15.59,9.53a25.6,25.6,0,0,0,.15,2.92c1.85,10.82-4.6,17-12.85,21.44-6,3.2-8.71,7.64-9.52,14s0,12.65.86,18.91a15.33,15.33,0,0,0,5.32,9.75c2,1.71,1.66,2.5,0,4a125.43,125.43,0,0,1-62.33,31.74A128.55,128.55,0,0,1,1155.79,380.42Z" transform="translate(-30.21 -21.5)"/><path class="cls-2" d="M1186,127.87c7.84-6.08,13-13.86,20-19.9,4-3.51,4.65-7.51,3.42-12.16A56.22,56.22,0,0,0,1206.9,89a54,54,0,0,1-3.57-29.36c1.46-9.5,7.36-16.36,14.56-22A37.77,37.77,0,0,1,1237,29.76c9.4-1.07,17.52,2.36,24.18,8.88,3.55,3.48,6.66,7.41,8.27,12.34.92,2.81,4.18,4.24,6.13,2.43,5.68-5.26,12.46-3.63,18.79-3.24,15.73,1,26.55,9.18,32.54,23.78a13.66,13.66,0,0,1-.22,11.67c-2.3,4.7-4.71,9.37-8.83,12.86-1.68,1.42-2.68,3.2-2,5.49s2.52,3.18,4.68,3.52c13.71,2.15,21.59,11,25.88,23.35,2.38,6.89,3.25,14.22,3.64,21.55.35,6.55-1.9,12.08-6,17.1a45.85,45.85,0,0,1-25.92,16c-3.33.76-6.51.74-9.52-1.11-5.82-3.58-11.25-2.57-16.73,1.07a156.28,156.28,0,0,1-18.15,10.16c-2.21,1.08-3.26,1.16-3.42-2-.7-14-5.9-25.78-17-35-9.06-7.47-19.47-12.42-29.68-17.83-4.62-2.45-9.38-4.66-14-7C1202.34,130.13,1194.54,129,1186,127.87Z" transform="translate(-30.21 -21.5)"/><path class="cls-2" d="M1260.29,187.87c-23.14-26.91-52.06-40.86-86.47-44,3.53-6.57,8.76-9,15.62-7.92,10.12,1.52,18.83,6.28,27.58,11.12,10.4,5.76,21.34,10.56,30.51,18.47C1254.25,171.35,1258.83,178.14,1260.29,187.87Z" transform="translate(-30.21 -21.5)"/><path class="cls-1" d="M1112.85,183.17c8.49.47,16.22,3.24,23.56,7.28a9.91,9.91,0,0,1,5.21,6.69c1.1,4.69-1.21,8.6-6,9.3a28.4,28.4,0,0,1-7.65.06,57.57,57.57,0,0,1-24.54-8.69c-2.91-1.89-5.11-4.5-4.29-8.21s4.06-5.26,7.59-5.87C1108.71,183.38,1110.79,183.34,1112.85,183.17Z" transform="translate(-30.21 -21.5)"/><path class="cls-1" d="M1197.77,234.5c-8.56-.69-16-4.75-23.23-9.33a7.22,7.22,0,0,1-3.15-8.65A9.2,9.2,0,0,1,1179,210c4.22-.64,8.21.39,12.13,1.79a97.76,97.76,0,0,1,13.4,5.72c5.25,2.82,7.28,6,6.56,9.85-.61,3.27-4.86,6.34-9.79,7C1200.19,234.47,1199.09,234.44,1197.77,234.5Z" transform="translate(-30.21 -21.5)"/><path class="cls-1" d="M1136.82,250c-1,.06-1.94.07-2.9.17a4.46,4.46,0,0,0-3.89,2.34c-.76,1.63.62,2.72,1.58,3.76a29.07,29.07,0,0,0,3.72,3.47c1.77,1.34,2.72,3,1.67,5-1.19,2.35-3.35,2.54-5.66,1.89-5.47-1.53-10.79-8.76-10.59-14.37.19-5,4.9-9.85,11-11.17a22.79,22.79,0,0,1,8.71,0c2.65.45,4.6,1.94,4.4,4.89s-2.4,4-5.08,4.17c-1,.07-1.94,0-2.91,0Z" transform="translate(-30.21 -21.5)"/><path class="cls-1" d="M1113.48,290.12c0-4.9,3.94-9.64,8.11-9.75a7,7,0,0,1,7.28,7c.1,5.49-3.71,10-8.48,10.07C1116.42,297.52,1113.48,294.39,1113.48,290.12Z" transform="translate(-30.21 -21.5)"/><path class="cls-1" d="M1181.66,251.73a6.32,6.32,0,0,1-6,6.55,6.5,6.5,0,0,1-.67-13A6.78,6.78,0,0,1,1181.66,251.73Z" transform="translate(-30.21 -21.5)"/><path class="cls-1" d="M1108.27,233.73a6.13,6.13,0,0,1-6.4-6,5.7,5.7,0,0,1,5.79-6.1,6.1,6.1,0,0,1,6.14,6.28A5.37,5.37,0,0,1,1108.27,233.73Z" transform="translate(-30.21 -21.5)"/><path class="cls-1" d="M1250.48,106.2a5.9,5.9,0,0,1-1.27,3.37q-4.92,7-9.89,14c-1,1.4-2.37,2.31-4.07,1.44-1.92-1-1.88-2.71-1.11-4.42,2.67-5.92,6.57-11.08,10.23-16.38a3.28,3.28,0,0,1,4.21-1.26A3.07,3.07,0,0,1,1250.48,106.2Z" transform="translate(-30.21 -21.5)"/><path class="cls-1" d="M1280,161.24c-2.87-.09-3.93-1.75-3-3.76a6.11,6.11,0,0,1,2.88-2.71c5.28-2.73,11-3.67,16.87-3.92a3.57,3.57,0,0,1,4,3A3.4,3.4,0,0,1,1298,158C1291.87,159.4,1285.4,159,1280,161.24Z" transform="translate(-30.21 -21.5)"/><path class="cls-1" d="M1259.41,135c-1.91,0-3.18-.18-3.63-1.6s.54-2,1.43-2.67c3.73-2.73,7.44-5.5,11.22-8.15,1.8-1.26,4-2,5.55.06s.39,4-1.36,5.37A37.42,37.42,0,0,1,1259.41,135Z" transform="translate(-30.21 -21.5)"/></svg>